<?xml version="1.0" encoding="UTF-8"?>
<svg version="1.1" viewBox="0 0 1000 935" xmlns="http://www.w3.org/2000/svg">
<g transform="translate(.28237 .37854)">
<svg width="1e3" height="935" data-background-color="#ffffff" viewBox="0 0 264 247" xmlns="http://www.w3.org/2000/svg" xmlns:xlink="http://www.w3.org/1999/xlink">
<g transform="translate(-.074546 -.1)">
<svg width="264.15" height="247.2" viewBox="0 0 264.14908651228234 247.2">
<svg width="264.15" height="247.2" viewBox="0 0 395.52 370.14151853011913">
<g transform="translate(0 259.6)">
<svg width="395.52" height="110.54" viewBox="0 0 395.52 110.54492506678949">
<svg width="395.52" height="110.54" viewBox="0 0 395.52 110.54492506678949">
<svg width="395.52" height="68.319" viewBox="0 0 395.52 68.31874712114232">
<g>
<svg width="395.52" height="68.319" data-palette-color="#233565" viewBox="3.4000000953674316 -36.95000076293945 217.0900115966797 37.5">
<path class="undefined-text-0" d="m4.1-33.2-0.7-3.25h5.8v16.3l14-16.3h5.15l-13.8 16.15 14.75 20.3h-6.25l-13.85-18.85v18.85h-5.1v-33.2zm43.4 33.75q-4.05 0-7.13-1.5-3.07-1.5-5.12-4.1t-3.08-5.98q-1.02-3.37-1.02-7.17t1.02-7.18q1.03-3.37 3.05-6 2.03-2.62 5.13-4.1 3.1-1.47 7.2-1.47 4.15 0 7.22 1.47 3.08 1.48 5.13 4.08t3.07 6q1.03 3.4 1.03 7.25 0 3.8-1.05 7.17-1.05 3.38-3.1 5.98t-5.13 4.07q-3.07 1.48-7.22 1.48zm0.1-3.7q3.15 0 5.25-1.33 2.1-1.32 3.37-3.52 1.28-2.2 1.83-4.85t0.55-5.3-0.55-5.3-1.83-4.85q-1.27-2.2-3.4-3.55-2.12-1.35-5.22-1.35t-5.23 1.32q-2.12 1.33-3.37 3.53t-1.83 4.85q-0.57 2.65-0.57 5.3t0.57 5.3q0.58 2.65 1.83 4.87 1.25 2.23 3.37 3.55 2.13 1.33 5.23 1.33zm21.85-33.3h6.6l15.6 23.95q0.44 0.7 0.94 1.47 0.5 0.78 1 1.53-0.04-0.85-0.12-1.75-0.07-0.9-0.07-1.75v-23.45h4.19v36.7h-3.44l-18.15-27.7q-0.41-0.7-0.91-1.45t-1-1.45q0.11 0.8 0.16 1.65t0.05 1.65v27.05h-4.15v-33.2l-0.7-3.25zm43.99 36.45v-32.7h-10.65v-3.75h26.7v3.75h-10.8v32.7h-5.25zm21.2-33.2-0.7-3.25h11.2q3.45 0 6.25 0.9t4.42 3.07q1.63 2.18 1.63 6.08 0 2-0.97 3.87-0.98 1.88-2.6 3.25-1.63 1.38-3.53 1.98l10.4 17.3h-5.9l-9.55-16.35h-5.55v16.35h-5.1v-33.2zm10.35 0.55h-5.25v12.6h3.85q2.4 0 4.32-0.55 1.93-0.55 3.06-2 1.12-1.45 1.12-4.05 0-2.05-1-3.38-1-1.32-2.6-1.97t-3.5-0.65zm32.7 33.2q-4.05 0-7.13-1.5-3.07-1.5-5.12-4.1t-3.08-5.98q-1.02-3.37-1.02-7.17t1.02-7.18q1.03-3.37 3.05-6 2.03-2.62 5.13-4.1 3.1-1.47 7.2-1.47 4.15 0 7.22 1.47 3.08 1.48 5.13 4.08t3.07 6q1.03 3.4 1.03 7.25 0 3.8-1.05 7.17-1.05 3.38-3.1 5.98t-5.13 4.07q-3.07 1.48-7.22 1.48zm0.1-3.7q3.15 0 5.25-1.33 2.1-1.32 3.37-3.52 1.28-2.2 1.83-4.85t0.55-5.3-0.55-5.3-1.83-4.85q-1.27-2.2-3.4-3.55-2.12-1.35-5.22-1.35t-5.23 1.32q-2.12 1.33-3.37 3.53t-1.83 4.85q-0.57 2.65-0.57 5.3t0.57 5.3q0.58 2.65 1.83 4.87 1.25 2.23 3.37 3.55 2.13 1.33 5.23 1.33zm22.49-30.05-0.69-3.25h5.79v32.7h15.11v3.75h-20.21v-33.2z" fill="#233565" data-fill-palette-color="primary"/>
</svg>
</g>
</svg>
<g transform="translate(0 84.447)">
<svg width="395.52" height="26.098" viewBox="0 0 395.52 26.09776140027637">
<g>
<svg width="395.52" height="26.098" data-palette-color="#1559ca" viewBox="0.8799999952316284 -35.77000045776367 548.239990234375 36.17000198364258">
<path class="undefined-text-1" d="m0.88-35.38h27.47v2.18h-12.42v33.2h-2.55v-33.2h-12.5v-2.18zm63.88 0 14.48 35.38h-1.98q-0.35 0-0.57-0.19-0.23-0.19-0.35-0.49l-4.18-10.27h-17.37l-4.15 10.27q-0.1 0.28-0.35 0.48t-0.6 0.2h-1.95l14.47-35.38h2.55zm-1.97 4.68-7.23 17.85h15.85l-7.22-17.88q-0.18-0.42-0.35-0.96-0.18-0.54-0.35-1.14-0.18 0.6-0.35 1.14-0.18 0.54-0.35 0.99zm57.51 29.02q1.83 0 3.33-0.18 1.5-0.19 2.79-0.57 1.28-0.37 2.45-0.91 1.16-0.54 2.33-1.21v-9.53h-6.8q-0.27 0-0.46-0.17-0.19-0.18-0.19-0.4v-1.4h9.78v12.57q-1.33 0.93-2.75 1.65-1.43 0.73-3.05 1.22-1.63 0.48-3.5 0.75-1.88 0.26-4.1 0.26-3.83 0-6.99-1.29t-5.42-3.65q-2.27-2.36-3.52-5.71t-1.25-7.45 1.25-7.44 3.55-5.7 5.59-3.65q3.29-1.28 7.36-1.28 2.03 0 3.74 0.27t3.19 0.81q1.47 0.54 2.75 1.33 1.27 0.78 2.45 1.81l-0.68 1.1q-0.22 0.37-0.62 0.37-0.23 0-0.43-0.1-0.37-0.15-1.08-0.7-0.72-0.55-1.93-1.14-1.21-0.61-3.04-1.08-1.82-0.48-4.42-0.48-3.45 0-6.23 1.1-2.77 1.1-4.73 3.15-1.97 2.05-3.03 5t-1.06 6.63q0 3.75 1.07 6.72 1.08 2.98 3.02 5.04 1.93 2.06 4.65 3.16 2.71 1.1 5.98 1.1zm77.21-33.75v16.38h2.1q0.47 0 0.82-0.04t0.64-0.15 0.54-0.29q0.25-0.17 0.52-0.45l14.28-14.67q0.4-0.4 0.74-0.56 0.33-0.17 0.83-0.17h2.08l-15.45 15.88q-0.48 0.5-0.84 0.77-0.36 0.28-0.81 0.45 0.52 0.15 0.94 0.47 0.41 0.31 0.83 0.81l16.3 17h-2.07q-0.65 0-0.93-0.19-0.27-0.19-0.57-0.49l-14.98-15.3q-0.27-0.27-0.5-0.47-0.22-0.2-0.51-0.34t-0.69-0.2-1-0.06h-2.27v17.05h-2.55v-35.43h2.55zm81.51 17.73q0 4.1-1.22 7.44-1.23 3.33-3.45 5.7-2.23 2.36-5.33 3.65t-6.87 1.29q-3.73 0-6.83-1.29t-5.32-3.65q-2.23-2.37-3.47-5.7-1.23-3.34-1.23-7.44 0-4.08 1.23-7.41 1.24-3.34 3.47-5.7 2.22-2.37 5.32-3.67 3.1-1.29 6.83-1.29 3.77 0 6.87 1.28 3.1 1.29 5.33 3.66 2.22 2.38 3.45 5.72 1.22 3.33 1.22 7.41zm-2.65 0q0-3.7-1.02-6.65-1.03-2.95-2.89-5t-4.49-3.14q-2.62-1.09-5.82-1.09-3.15 0-5.77 1.09-2.61 1.09-4.5 3.14-1.88 2.05-2.92 5t-1.04 6.65q0 3.72 1.04 6.66t2.92 4.99q1.89 2.05 4.5 3.12 2.62 1.08 5.77 1.08 3.2 0 5.82-1.08 2.63-1.07 4.49-3.12t2.89-4.99q1.02-2.94 1.02-6.66zm33.24-17.68q0.35 0 0.55 0.09t0.43 0.39l22.9 30.65q-0.08-0.75-0.08-1.45v-29.68h2.25v35.38h-1.22q-0.58 0-0.93-0.5l-23-30.7q0.08 0.75 0.08 1.42v29.78h-2.23v-35.38h1.25zm53.19 0h27.48v2.18h-12.43v33.2h-2.55v-33.2h-12.5v-2.18zm62.54 19.38h-4.62v16h-2.55v-35.38h9.02q6.13 0 9.15 2.37 3.03 2.36 3.03 6.93 0 2.03-0.7 3.7-0.7 1.68-2.02 2.94-1.31 1.26-3.16 2.08-1.85 0.81-4.17 1.06 0.6 0.37 1.07 1l12.18 15.3h-2.23q-0.4 0-0.69-0.15-0.28-0.15-0.56-0.5l-11.32-14.35q-0.43-0.55-0.92-0.78-0.48-0.22-1.51-0.22zm-4.62-17.35v15.45h6.15q2.35 0 4.21-0.56 1.86-0.57 3.15-1.62t1.96-2.52q0.68-1.48 0.68-3.33 0-3.77-2.48-5.6-2.47-1.82-7.2-1.82h-6.47zm79.73 15.65q0 4.1-1.22 7.44-1.23 3.33-3.45 5.7-2.23 2.36-5.33 3.65t-6.87 1.29q-3.73 0-6.83-1.29t-5.32-3.65q-2.23-2.37-3.46-5.7-1.24-3.34-1.24-7.44 0-4.08 1.24-7.41 1.23-3.34 3.46-5.7 2.22-2.37 5.32-3.67 3.1-1.29 6.83-1.29 3.77 0 6.87 1.28 3.1 1.29 5.33 3.66 2.22 2.38 3.45 5.72 1.22 3.33 1.22 7.41zm-2.65 0q0-3.7-1.02-6.65-1.03-2.95-2.89-5t-4.49-3.14q-2.62-1.09-5.82-1.09-3.15 0-5.76 1.09-2.62 1.09-4.5 3.14-1.89 2.05-2.93 5t-1.04 6.65q0 3.72 1.04 6.66t2.93 4.99q1.88 2.05 4.5 3.12 2.61 1.08 5.76 1.08 3.2 0 5.82-1.08 2.63-1.07 4.49-3.12t2.89-4.99q1.02-2.94 1.02-6.66zm34.54-17.68v33.2h16.78v2.18h-19.33v-35.38h2.55z" fill="#1559ca" data-fill-palette-color="secondary"/>
</svg>
</g>
</svg>
</g>
</svg>
</svg>
</g>
<g transform="translate(84.09)">
<svg width="227.34" height="227.34" viewBox="0 0 227.3397603725881 227.3397603725881">
<svg/>
<svg width="227.34" height="227.34" viewBox="0 0 227.3397603725881 227.3397603725881">
<g fill="#ffb600" stroke="transparent">
<path d="m0 113.67c0-62.778 50.892-113.67 113.67-113.67s113.67 50.892 113.67 113.67-50.892 113.67-113.67 113.67-113.67-50.892-113.67-113.67zm113.67 107.51c59.375 0 107.51-48.133 107.51-107.51 0-59.375-48.133-107.51-107.51-107.51-59.375 0-107.51 48.133-107.51 107.51 0 59.375 48.133 107.51 107.51 107.51z" data-fill-palette-color="accent"/>
<ellipse cx="113.67" cy="113.67" rx="112.53" ry="112.53" stroke-width="0" data-fill-palette-color="accent"/>
</g>
<g transform="translate(47.882 47.88)">
<svg width="131.58" height="131.58" viewBox="0 0 131.57630056750145 131.57893070054615">
<svg class="icon-x-0" width="131.58" height="131.58" enable-background="new 0 0 99.998 100" fill="#fff" data-fill-palette-color="quaternary" version="1.1" viewBox="0 0 99.99800109863281 100" xml:space="preserve" xmlns="http://www.w3.org/2000/svg" xmlns:xlink="http://www.w3.org/1999/xlink"><path d="M49.999 0C22.389 0 0 22.389 0 49.999 0 77.613 22.389 100 49.999 100c27.612 0 49.999-22.387 49.999-50.001S77.611 0 49.999 0zM49.999 85.712c-19.724 0-35.715-15.993-35.715-35.716 0-19.72 15.992-35.712 35.715-35.712 19.722 0 35.715 15.992 35.715 35.712C85.714 69.723 69.721 85.712 49.999 85.712z" data-fill-palette-color="quaternary"/><path d="m49.999 35.715c-7.89 0-28.571 14.284-28.571 14.284s20.681 14.289 28.571 14.289c7.891 0 14.287-6.397 14.287-14.289 0-7.89-6.396-14.284-14.287-14.284zm0 17.857c-1.971 0-3.572-1.598-3.572-3.573 0-1.971 1.601-3.572 3.572-3.572 1.975 0 3.572 1.601 3.572 3.572 0 1.976-1.597 3.573-3.572 3.573z" data-fill-palette-color="quaternary"/></svg>
</svg>
</g>
</svg>
</svg>
</g>
</svg>
</svg>
<rect width="264.15" height="247.2" fill="none" visibility="hidden"/>
</g>
</svg>
</g>
</svg>
